<svg xmlns="http://www.w3.org/2000/svg" width="400" height="220" viewBox="0 0 400 220">
  <defs>
    <pattern id="fine" width="10" height="10" patternUnits="userSpaceOnUse">
      <path d="M10 0V10H0" fill="none" stroke="#d8c8c8" stroke-width="0.35"/>
    </pattern>
    <linearGradient id="fade" x1="0" y1="0" x2="1" y2="0.8">
      <stop offset="0%" stop-color="#f6eeee"/>
      <stop offset="100%" stop-color="#f0e6e8"/>
    </linearGradient>
  </defs>
  <rect width="400" height="220" fill="url(#fade)"/>
  <rect width="400" height="220" fill="url(#fine)"/>
  <line x1="200" y1="15" x2="200" y2="205" stroke="#aa4455" stroke-width="0.6" opacity="0.15"/>
  <line x1="40" y1="110" x2="360" y2="110" stroke="#aa4455" stroke-width="0.6" opacity="0.15"/>
  <path d="M200 110 C210 95 230 85 245 90 C260 95 265 110 258 125 C250 140 230 148 215 142 C200 136 195 120 200 110" fill="none" stroke="#c44060" stroke-width="1" opacity="0.2"/>
  <path d="M200 110 C215 85 250 68 280 78 C310 88 320 115 305 142 C290 170 250 182 220 170 C190 158 180 130 200 110" fill="none" stroke="#c44060" stroke-width="1.2" opacity="0.18"/>
  <path d="M200 110 C225 70 275 45 320 62 C360 78 375 120 350 158 C325 196 265 212 225 195 C185 178 170 140 200 110" fill="none" stroke="#c44060" stroke-width="1" opacity="0.12"/>
  <path d="M100 75 C108 68 120 65 128 70 C136 75 138 85 132 92 C126 100 115 102 108 97 C100 92 98 82 100 75" fill="none" stroke="#c44060" stroke-width="0.8" opacity="0.22"/>
  <path d="M100 75 C112 62 132 55 148 64 C164 74 168 95 155 110 C142 125 120 130 105 120 C90 110 85 90 100 75" fill="none" stroke="#c44060" stroke-width="0.8" opacity="0.15"/>
  <circle cx="200" cy="110" r="3" fill="#c44060" opacity="0.2"/>
  <circle cx="100" cy="75" r="2.5" fill="#c44060" opacity="0.2"/>
  <text x="365" y="108" font-family="monospace" font-size="7" fill="#aa4455" opacity="0.18">x</text>
  <text x="203" y="14" font-family="monospace" font-size="7" fill="#aa4455" opacity="0.18">dx/dt</text>
  <polygon points="258,125 254,121 252,127" fill="#c44060" opacity="0.2"/>
  <polygon points="305,142 300,138 299,144" fill="#c44060" opacity="0.15"/>
  <polygon points="132,92 128,88 127,94" fill="#c44060" opacity="0.18"/>
</svg>
