<svg xmlns="http://www.w3.org/2000/svg" width="400" height="220" viewBox="0 0 400 220">
  <defs>
    <pattern id="fine" width="10" height="10" patternUnits="userSpaceOnUse">
      <path d="M10 0V10H0" fill="none" stroke="#c8ddd0" stroke-width="0.35"/>
    </pattern>
    <linearGradient id="fade" x1="0" y1="0" x2="1" y2="1">
      <stop offset="0%" stop-color="#ecf5ef"/>
      <stop offset="100%" stop-color="#e4f0e8"/>
    </linearGradient>
  </defs>
  <rect width="400" height="220" fill="url(#fade)"/>
  <rect width="400" height="220" fill="url(#fine)"/>
  <circle cx="200" cy="110" r="85" fill="none" stroke="#4a8a5a" stroke-width="0.5" opacity="0.12"/>
  <circle cx="200" cy="110" r="65" fill="none" stroke="#4a8a5a" stroke-width="0.5" opacity="0.15"/>
  <circle cx="200" cy="110" r="45" fill="none" stroke="#4a8a5a" stroke-width="0.5" opacity="0.18"/>
  <circle cx="200" cy="110" r="25" fill="none" stroke="#4a8a5a" stroke-width="0.5" opacity="0.2"/>
  <line x1="200" y1="22" x2="200" y2="198" stroke="#4a8a5a" stroke-width="0.4" opacity="0.1"/>
  <line x1="112" y1="110" x2="288" y2="110" stroke="#4a8a5a" stroke-width="0.4" opacity="0.1"/>
  <line x1="138" y1="38" x2="262" y2="182" stroke="#4a8a5a" stroke-width="0.4" opacity="0.08"/>
  <line x1="262" y1="38" x2="138" y2="182" stroke="#4a8a5a" stroke-width="0.4" opacity="0.08"/>
  <path d="M200 42 C230 48 268 68 275 100 C280 125 268 155 245 170 C225 182 200 185 185 178 C165 168 148 148 142 125 C136 100 145 72 162 55 C175 42 192 38 200 42" fill="#3a9e52" fill-opacity="0.06" stroke="#3a9e52" stroke-width="1.5" opacity="0.3"/>
  <path d="M200 60 C220 62 248 78 255 102 C260 120 252 142 238 154 C224 164 208 166 196 162 C180 155 166 140 160 122 C155 105 160 85 172 72 C182 62 194 58 200 60" fill="none" stroke="#2a7e42" stroke-width="1" opacity="0.2" stroke-dasharray="4 3"/>
  <text x="202" y="18" font-family="monospace" font-size="6" fill="#4a8a5a" opacity="0.2" text-anchor="middle">0&#xB0;</text>
  <text x="292" y="113" font-family="monospace" font-size="6" fill="#4a8a5a" opacity="0.2">90&#xB0;</text>
  <text x="202" y="205" font-family="monospace" font-size="6" fill="#4a8a5a" opacity="0.2" text-anchor="middle">180&#xB0;</text>
  <text x="104" y="113" font-family="monospace" font-size="6" fill="#4a8a5a" opacity="0.2" text-anchor="end">270&#xB0;</text>
  <circle cx="275" cy="100" r="2.5" fill="#3a9e52" opacity="0.25"/>
  <circle cx="245" cy="170" r="2.5" fill="#3a9e52" opacity="0.25"/>
  <circle cx="142" cy="125" r="2.5" fill="#3a9e52" opacity="0.25"/>
  <circle cx="200" cy="42" r="2.5" fill="#3a9e52" opacity="0.25"/>
</svg>
