<svg width="828" height="140" viewBox="0 0 828 140" fill="none" xmlns="http://www.w3.org/2000/svg">
<rect x="102.097" y="35" width="35.0048" height="35" fill="#7D7FFF"/>
<rect x="137.101" y="70" width="35.0048" height="35" fill="#9479FF"/>
<rect x="32.0879" width="70.0096" height="35" fill="#6686FF"/>
<rect x="172.107" y="105" width="70.0096" height="35" fill="#AB72FF"/>
<rect x="242.117" y="105" width="70" height="35.0048" transform="rotate(-90 242.117 105)" fill="#C26CFF"/>
<rect y="105" width="70" height="35.0048" transform="rotate(-90 0 105)" fill="#4F8CFF"/>
<path d="M359.182 105V11.9091H394.091C401.242 11.9091 407.242 13.1515 412.091 15.6364C416.97 18.1212 420.652 21.6061 423.136 26.0909C425.652 30.5455 426.909 35.7424 426.909 41.6818C426.909 47.6515 425.636 52.8333 423.091 57.2273C420.576 61.5909 416.864 64.9697 411.955 67.3636C407.045 69.7273 401.015 70.9091 393.864 70.9091H369V56.9091H391.591C395.773 56.9091 399.197 56.3333 401.864 55.1818C404.53 54 406.5 52.2879 407.773 50.0455C409.076 47.7727 409.727 44.9848 409.727 41.6818C409.727 38.3788 409.076 35.5606 407.773 33.2273C406.47 30.8636 404.485 29.0758 401.818 27.8636C399.152 26.6212 395.712 26 391.5 26H376.045V105H359.182ZM407.273 62.8182L430.318 105H411.5L388.864 62.8182H407.273ZM486.205 75.6364V35.1818H502.659V105H486.705V92.5909H485.977C484.402 96.5 481.811 99.697 478.205 102.182C474.629 104.667 470.22 105.909 464.977 105.909C460.402 105.909 456.356 104.894 452.841 102.864C449.356 100.803 446.629 97.8182 444.659 93.9091C442.689 89.9697 441.705 85.2121 441.705 79.6364V35.1818H458.159V77.0909C458.159 81.5152 459.371 85.0303 461.795 87.6364C464.22 90.2424 467.402 91.5455 471.341 91.5455C473.765 91.5455 476.114 90.9545 478.386 89.7727C480.659 88.5909 482.523 86.8333 483.977 84.5C485.462 82.1364 486.205 79.1818 486.205 75.6364ZM536.034 64.0909V105H519.58V35.1818H535.307V47.0455H536.125C537.731 43.1364 540.292 40.0303 543.807 37.7273C547.352 35.4242 551.731 34.2727 556.943 34.2727C561.761 34.2727 565.958 35.303 569.534 37.3636C573.14 39.4242 575.928 42.4091 577.898 46.3182C579.898 50.2273 580.883 54.9697 580.852 60.5455V105H564.398V63.0909C564.398 58.4242 563.186 54.7727 560.761 52.1364C558.367 49.5 555.049 48.1818 550.807 48.1818C547.928 48.1818 545.367 48.8182 543.125 50.0909C540.913 51.3333 539.17 53.1364 537.898 55.5C536.655 57.8636 536.034 60.7273 536.034 64.0909ZM598.307 11.9091H618.943L646.58 79.3636H647.67L675.307 11.9091H695.943V105H679.761V41.0455H678.898L653.17 104.727H641.08L615.352 40.9091H614.489V105H598.307V11.9091ZM733.67 106.409C729.246 106.409 725.261 105.621 721.716 104.045C718.201 102.439 715.413 100.076 713.352 96.9545C711.322 93.8333 710.307 89.9848 710.307 85.4091C710.307 81.4697 711.034 78.2121 712.489 75.6364C713.943 73.0606 715.928 71 718.443 69.4545C720.958 67.9091 723.792 66.7424 726.943 65.9545C730.125 65.1364 733.413 64.5455 736.807 64.1818C740.898 63.7576 744.216 63.3788 746.761 63.0455C749.307 62.6818 751.155 62.1364 752.307 61.4091C753.489 60.6515 754.08 59.4848 754.08 57.9091V57.6364C754.08 54.2121 753.064 51.5606 751.034 49.6818C749.004 47.803 746.08 46.8636 742.261 46.8636C738.231 46.8636 735.034 47.7424 732.67 49.5C730.337 51.2576 728.761 53.3333 727.943 55.7273L712.58 53.5455C713.792 49.303 715.792 45.7576 718.58 42.9091C721.367 40.0303 724.777 37.8788 728.807 36.4545C732.837 35 737.292 34.2727 742.17 34.2727C745.534 34.2727 748.883 34.6667 752.216 35.4545C755.549 36.2424 758.595 37.5455 761.352 39.3636C764.11 41.1515 766.322 43.5909 767.989 46.6818C769.686 49.7727 770.534 53.6364 770.534 58.2727V105H754.716V95.4091H754.17C753.17 97.3485 751.761 99.1667 749.943 100.864C748.155 102.53 745.898 103.879 743.17 104.909C740.473 105.909 737.307 106.409 733.67 106.409ZM737.943 94.3182C741.246 94.3182 744.11 93.6667 746.534 92.3636C748.958 91.0303 750.822 89.2727 752.125 87.0909C753.458 84.9091 754.125 82.5303 754.125 79.9545V71.7273C753.61 72.1515 752.731 72.5455 751.489 72.9091C750.277 73.2727 748.913 73.5909 747.398 73.8636C745.883 74.1364 744.383 74.3788 742.898 74.5909C741.413 74.803 740.125 74.9848 739.034 75.1364C736.58 75.4697 734.383 76.0152 732.443 76.7727C730.504 77.5303 728.973 78.5909 727.852 79.9545C726.731 81.2879 726.17 83.0152 726.17 85.1364C726.17 88.1667 727.277 90.4545 729.489 92C731.701 93.5455 734.519 94.3182 737.943 94.3182ZM821.943 35.1818V47.9091H781.807V35.1818H821.943ZM791.716 18.4545H808.17V84C808.17 86.2121 808.504 87.9091 809.17 89.0909C809.867 90.2424 810.777 91.0303 811.898 91.4545C813.019 91.8788 814.261 92.0909 815.625 92.0909C816.655 92.0909 817.595 92.0152 818.443 91.8636C819.322 91.7121 819.989 91.5758 820.443 91.4545L823.216 104.318C822.337 104.621 821.08 104.955 819.443 105.318C817.837 105.682 815.867 105.894 813.534 105.955C809.413 106.076 805.701 105.455 802.398 104.091C799.095 102.697 796.473 100.545 794.534 97.6364C792.625 94.7273 791.686 91.0909 791.716 86.7273V18.4545Z" fill="#B864F4"/>
</svg>
