<svg width="264" height="134" viewBox="0 0 264 134" fill="none" xmlns="http://www.w3.org/2000/svg">
<path d="M30 33H0V101H30V33Z" fill="url(#paint0_linear_180_10)"/>
<path d="M264 33H230V101H264V33Z" fill="url(#paint1_linear_180_10)"/>
<path d="M30 33V0H96V33H30Z" fill="url(#paint2_linear_180_10)"/>
<path d="M165 134V101H230V134H165Z" fill="url(#paint3_linear_180_10)"/>
<path d="M96 65V33H132V65H96Z" fill="url(#paint4_linear_180_10)"/>
<path d="M132 101V66H165V101H132Z" fill="url(#paint5_linear_180_10)"/>
<defs>
<linearGradient id="paint0_linear_180_10" x1="15" y1="33" x2="15" y2="101" gradientUnits="userSpaceOnUse">
<stop offset="1" stop-color="#4F8CFF"/>
</linearGradient>
<linearGradient id="paint1_linear_180_10" x1="247" y1="33" x2="247" y2="101" gradientUnits="userSpaceOnUse">
<stop offset="1" stop-color="#C26CFF"/>
</linearGradient>
<linearGradient id="paint2_linear_180_10" x1="63" y1="0" x2="63" y2="33" gradientUnits="userSpaceOnUse">
<stop offset="1" stop-color="#6686FF"/>
</linearGradient>
<linearGradient id="paint3_linear_180_10" x1="197.5" y1="101" x2="197.5" y2="134" gradientUnits="userSpaceOnUse">
<stop offset="1" stop-color="#AB72FF"/>
</linearGradient>
<linearGradient id="paint4_linear_180_10" x1="114" y1="33" x2="114" y2="65" gradientUnits="userSpaceOnUse">
<stop offset="1" stop-color="#7D7FFF"/>
</linearGradient>
<linearGradient id="paint5_linear_180_10" x1="148.5" y1="66" x2="148.5" y2="101" gradientUnits="userSpaceOnUse">
<stop offset="1" stop-color="#9479FF"/>
</linearGradient>
</defs>
</svg>
